<svg width="1440" height="68" viewBox="0 0 1440 68" fill="none" xmlns="http://www.w3.org/2000/svg">
<rect width="224.133" height="66.5394" transform="translate(-99.9399 0.50061)" fill="white"/>
<path d="M113.841 36.2587L115.148 36.1532C115.684 36.111 116.22 36.0477 116.713 35.9845C117.999 35.7946 119.092 35.4571 119.992 34.993C120.335 34.8242 120.507 34.6977 120.892 34.4234C122.028 33.6218 122.607 32.546 122.693 31.0694C122.714 30.774 122.693 30.542 122.671 30.2888C122.607 29.3607 122.393 28.5802 122.007 27.9684C121.557 27.2301 120.914 26.6605 120.057 26.2386C119.199 25.8167 118.106 25.5003 116.842 25.3105C116.842 25.3105 114.977 25.0151 112.212 25.0151H91.0781V42.545H97.7226V36.3853H106.746L116.906 42.5661H124.193L113.841 36.2587ZM110.819 27.0613C110.861 27.0613 110.883 27.0613 110.926 27.0613C111.676 27.0824 112.319 27.1035 112.876 27.1668C113.584 27.2512 114.184 27.3989 114.655 27.652C115.148 27.9051 115.534 28.2848 115.727 28.7489C115.92 29.1497 116.006 29.656 116.027 30.2678C116.027 30.3099 116.048 31.1537 116.006 31.5756C115.984 31.9975 115.877 32.4616 115.727 32.778C115.577 33.1156 115.363 33.3898 115.062 33.6218C114.977 33.6851 114.891 33.7484 114.805 33.7906C114.377 34.0226 113.841 34.1703 113.155 34.2547C112.533 34.318 111.74 34.3602 110.797 34.3602H97.6797V27.0613H110.819Z" fill="#5F5F5F"/>
<path d="M-2.05121 34.529V40.2246H-12.1894C-17.505 40.2246 -20.5914 38.537 -21.4273 35.2462C-21.7703 33.8751 -21.5559 32.5672 -21.4273 32.082C-20.6128 28.749 -17.5693 27.1247 -12.1894 27.1247H3.6716V25.0363H-10.1103C-13.0039 25.0363 -15.6188 25.1418 -17.9122 25.3316C-20.1413 25.5215 -22.0703 25.9434 -23.6136 26.5551C-25.1354 27.1669 -26.2928 28.0318 -27.0858 29.1709C-27.8575 30.2467 -28.2433 31.7023 -28.2861 33.4954C-28.2861 33.5375 -28.2861 33.5797 -28.2861 33.643C-28.2861 33.7274 -28.2861 33.8118 -28.2861 33.9172C-28.2647 35.7736 -27.8575 37.2713 -27.0644 38.3683C-26.2499 39.5074 -25.0711 40.3934 -23.5707 41.0051C-22.0275 41.638 -20.0984 42.0599 -17.8693 42.2708C-15.5759 42.4818 -12.9824 42.5872 -10.1103 42.5872H4.57182V34.529H-2.05121Z" fill="#5F5F5F"/>
<path d="M62.9775 25.0363L47.6523 42.5661H51.6176L55.0684 38.6003H74.3159L77.7668 42.5661H85.1614L69.8363 25.0363H62.9775ZM72.7084 36.744H56.7188L64.7136 27.6099L72.7084 36.744Z" fill="#5F5F5F"/>
<path d="M38.0289 25.0363V33.9172C38.0289 34.6767 37.9217 35.3728 37.7717 36.0056C36.9144 39.2331 33.8493 40.8785 28.5766 40.8996H27.9122C22.618 40.8996 19.5316 39.2121 18.6957 35.9424C18.5456 35.3306 18.4599 34.6556 18.4599 33.9383V25.0363H11.8154V34.1915C11.8154 36.09 12.2227 37.651 13.0371 38.7902C13.5516 39.4863 14.1946 40.1191 14.9662 40.6254C15.4377 40.9207 15.9521 41.195 16.5309 41.427C17.1096 41.6591 17.7311 41.87 18.417 42.0388C19.553 42.3341 20.839 42.545 22.2537 42.6927C24.0327 42.8615 26.0474 42.9669 28.2337 42.9669C30.4414 42.9669 32.4347 42.8615 34.2137 42.6927C35.6069 42.5661 36.8929 42.3552 38.0289 42.0599C38.7148 41.8911 39.3364 41.6802 39.9151 41.4481C40.4938 41.2161 41.0082 40.9629 41.4797 40.6465C42.2728 40.1402 42.9158 39.5285 43.4088 38.8113C44.2233 37.6721 44.6305 36.1111 44.6305 34.2126V25.0363H38.0289Z" fill="#5F5F5F"/>
<g clip-path="url(#clip0_12_590)">
<path d="M252.486 9.49982C252.541 9.5092 252.597 9.52585 252.652 9.5267C253.47 9.53523 254.287 9.54633 255.105 9.56382C256.22 9.58772 257.335 9.62826 258.45 9.66837C259.479 9.70549 260.507 9.76523 261.534 9.83905C262.971 9.94231 264.407 10.0554 265.841 10.2047C267.574 10.3852 269.294 10.6255 270.981 11.0667C272.682 11.5118 274.283 12.171 275.669 13.2817C277.032 14.3737 277.969 15.7665 278.572 17.3944C279.035 18.6421 279.278 19.9346 279.387 21.2587C279.498 22.5973 279.558 23.9371 279.602 25.2791C279.65 26.7786 279.706 28.278 279.672 29.7775C279.642 31.1763 279.578 32.5742 279.477 33.9704C279.408 34.9121 279.334 35.8534 279.247 36.793C279.151 37.8176 279.027 38.8391 278.924 39.8632C278.787 41.2202 278.585 42.5677 278.354 43.9106C277.988 46.0411 277.528 48.1427 276.718 50.164C275.55 53.0776 273.454 54.9606 270.528 55.9852C269.06 56.4989 267.545 56.8117 266.013 57.0473C264.61 57.2632 263.196 57.3882 261.778 57.4816C260.779 57.5474 259.78 57.6063 258.779 57.6506C257.402 57.7121 256.025 57.7522 254.646 57.7846C253.914 57.8017 253.182 57.8013 252.45 57.8187C251.156 57.8495 249.862 57.8623 248.568 57.8418C247.118 57.8192 245.668 57.7991 244.219 57.7616C243.097 57.733 241.975 57.6899 240.854 57.634C239.726 57.5777 238.599 57.5119 237.473 57.4245C235.221 57.2495 232.977 57.0084 230.789 56.4076C229.294 55.9971 227.852 55.465 226.568 54.5681C224.887 53.3942 223.808 51.7812 223.069 49.8943C222.402 48.19 221.995 46.423 221.665 44.633C221.413 43.2718 221.207 41.9029 221.04 40.5289C220.933 39.6554 220.856 38.7785 220.767 37.9029C220.684 37.0909 220.6 36.2793 220.526 35.4664C220.472 34.8797 220.429 34.2917 220.391 33.7041C220.245 31.4767 220.187 29.2458 220.193 27.0141C220.197 25.8279 220.191 24.6395 220.262 23.4541C220.361 21.7814 220.453 20.1074 220.896 18.4778C221.353 16.7957 222.109 15.2766 223.335 14.0178C224.348 12.9766 225.563 12.2406 226.904 11.6999C228.39 11.1008 229.944 10.7689 231.518 10.5154C232.843 10.302 234.178 10.1698 235.514 10.0533C236.575 9.96066 237.637 9.88001 238.701 9.82241C240.219 9.74048 241.736 9.64874 243.256 9.60649C244.521 9.5715 245.785 9.52755 247.05 9.52713C247.141 9.52713 247.235 9.54249 247.323 9.49939C249.044 9.49982 250.765 9.49982 252.486 9.49982ZM249.9 55.7407C249.9 55.7402 249.9 55.7398 249.9 55.739C251.059 55.739 252.219 55.7641 253.377 55.733C254.954 55.6907 256.532 55.6677 258.107 55.5755C258.971 55.5248 259.838 55.5009 260.702 55.4347C262.053 55.331 263.405 55.2222 264.747 55.0234C266.02 54.8352 267.284 54.6129 268.509 54.2028C270.845 53.4211 272.586 51.9673 273.631 49.713C274.184 48.5212 274.575 47.2765 274.874 46.0006C275.404 43.736 275.7 41.4348 275.949 39.1254C276.112 37.6081 276.247 36.0881 276.359 34.5665C276.446 33.3768 276.512 32.1837 276.529 30.9911C276.552 29.3636 276.562 27.7353 276.513 26.1069C276.467 24.587 276.4 23.0696 276.242 21.5569C276.12 20.3805 275.911 19.2233 275.496 18.1104C274.88 16.4573 273.857 15.1332 272.348 14.1979C270.927 13.3176 269.355 12.8695 267.728 12.5862C265.978 12.2815 264.214 12.0917 262.446 11.9333C261.088 11.8122 259.727 11.7371 258.367 11.6517C257.439 11.5937 256.508 11.5531 255.579 11.5241C254.321 11.4849 253.063 11.4533 251.806 11.4388C250.995 11.4294 250.185 11.4332 249.374 11.4537C248.038 11.4874 246.701 11.4678 245.365 11.5147C244.676 11.5391 243.986 11.5425 243.297 11.5655C242.651 11.5873 242.005 11.6154 241.36 11.6543C240.297 11.7174 239.234 11.7861 238.172 11.8629C237.485 11.9124 236.799 11.9713 236.114 12.0439C235.119 12.1493 234.125 12.264 233.136 12.4121C231.849 12.6046 230.573 12.8333 229.339 13.2643C226.515 14.2508 224.719 16.1723 223.99 19.085C223.614 20.5887 223.5 22.1245 223.402 23.6619C223.336 24.6898 223.288 25.7199 223.277 26.7496C223.257 28.6476 223.252 30.5452 223.341 32.4427C223.395 33.5991 223.472 34.7534 223.561 35.9076C223.655 37.1391 223.768 38.3685 223.901 39.5965C224.076 41.1988 224.289 42.7956 224.593 44.3787C224.929 46.1265 225.357 47.847 226.086 49.4804C226.835 51.1578 227.936 52.5216 229.559 53.4288C230.713 54.0739 231.959 54.458 233.247 54.717C235.199 55.1096 237.179 55.2926 239.161 55.4386C240.167 55.5124 241.174 55.5691 242.181 55.608C243.637 55.6643 245.094 55.7099 246.55 55.7364C247.666 55.7569 248.783 55.7407 249.9 55.7407Z" fill="#5F5F5F"/>
<path d="M294.559 23.016C294.726 23.0079 294.893 22.993 295.06 22.993C300.724 22.9917 306.387 22.9917 312.051 22.9921C312.65 22.9921 312.651 22.993 312.651 23.5818C312.652 24.2897 312.643 24.9976 312.655 25.7056C312.66 25.9902 312.569 26.1156 312.266 26.1446C311.436 26.2244 310.61 26.3584 309.779 26.4339C308.7 26.5321 308.151 27.0685 308.112 28.2193C308.075 29.3377 308.107 30.4587 308.099 31.5784C308.097 31.8553 308.249 31.8911 308.468 31.8899C309.176 31.8856 309.884 31.8886 310.592 31.8886C314.183 31.8886 317.774 31.889 321.366 31.8882C321.88 31.8882 321.882 31.886 321.882 31.3778C321.882 30.3354 321.889 29.2925 321.878 28.25C321.867 27.1009 321.321 26.5428 320.171 26.4314C319.302 26.3473 318.437 26.2227 317.568 26.1271C317.353 26.1032 317.277 25.9863 317.276 25.7964C317.274 24.9597 317.275 24.1233 317.276 23.2865C317.276 23.08 317.379 22.9802 317.589 22.9917C317.679 22.9968 317.769 22.9908 317.859 22.9908C323.497 22.9908 329.135 22.9908 334.773 22.9908C335.363 22.9908 335.363 22.9917 335.363 23.5878C335.364 24.2829 335.355 24.978 335.367 25.6731C335.372 25.9612 335.309 26.1122 334.974 26.1459C334.016 26.2419 333.06 26.3597 332.108 26.5082C331.42 26.6157 331.015 27.0484 330.899 27.7371C330.846 28.0529 330.807 28.3712 330.807 28.6959C330.813 32.4032 330.813 36.11 330.807 39.8173C330.807 40.142 330.845 40.4608 330.901 40.7757C331.042 41.5728 331.586 41.9867 332.495 42.0733C333.351 42.1548 334.203 42.2811 335.058 42.3741C335.291 42.3993 335.365 42.5107 335.364 42.7257C335.36 43.5497 335.359 44.3733 335.363 45.1972C335.365 45.4281 335.261 45.5271 335.036 45.516C334.946 45.5117 334.856 45.5168 334.766 45.5168C329.128 45.5168 323.49 45.5168 317.852 45.5168C317.273 45.5168 317.272 45.516 317.27 44.9442C317.269 44.2491 317.276 43.554 317.268 42.8589C317.265 42.5619 317.331 42.3955 317.687 42.3622C318.607 42.276 319.526 42.1646 320.438 42.017C321.292 41.8787 321.768 41.3453 321.791 40.4889C321.822 39.3057 321.8 38.1207 321.807 36.9366C321.808 36.7023 321.706 36.6127 321.481 36.6191C321.224 36.6263 320.966 36.6195 320.708 36.6195C316.692 36.6195 312.677 36.6195 308.66 36.6195C308.1 36.6195 308.1 36.6204 308.1 37.161C308.099 38.1262 308.103 39.0919 308.097 40.0571C308.095 40.3434 308.139 40.6229 308.205 40.8969C308.375 41.6112 308.892 41.9837 309.739 42.0707C310.595 42.1582 311.447 42.2824 312.303 42.3694C312.572 42.3967 312.653 42.5158 312.651 42.7646C312.645 43.5497 312.64 44.3349 312.653 45.12C312.658 45.4238 312.537 45.5254 312.241 45.5207C311.431 45.5079 310.619 45.5168 309.809 45.5168C304.917 45.5168 300.026 45.5173 295.135 45.516C294.942 45.516 294.75 45.5011 294.557 45.4929C294.557 44.4629 294.557 43.4332 294.557 42.4031C295.627 42.2734 296.698 42.1544 297.766 42.0097C298.494 41.9107 298.89 41.4567 299.029 40.7462C299.079 40.4911 299.092 40.2376 299.092 39.9803C299.092 37.2165 299.093 34.4527 299.092 31.6893C299.092 30.5325 299.104 29.3753 299.086 28.2189C299.069 27.1444 298.56 26.5718 297.54 26.4476C296.546 26.3268 295.551 26.2189 294.557 26.1054C294.559 25.0757 294.559 24.0457 294.559 23.016Z" fill="#5F5F5F"/>
<path d="M351.95 46.1881C351.261 46.1185 350.571 46.0601 349.883 45.9773C346.898 45.6171 344.004 44.9421 341.402 43.3539C338.454 41.5553 336.655 38.9673 336.278 35.5084C335.905 32.0857 336.814 29.0531 339.341 26.6162C340.881 25.1308 342.747 24.1873 344.765 23.5328C346.742 22.891 348.776 22.5526 350.845 22.3593C352.683 22.1878 354.522 22.1728 356.358 22.2373C359.69 22.3542 362.97 22.8065 366.057 24.1664C368.552 25.2652 370.613 26.8726 371.856 29.3659C372.76 31.1798 373.09 33.1077 372.924 35.1312C372.547 39.7017 369.942 42.5717 365.906 44.3361C363.768 45.2711 361.505 45.7426 359.192 45.985C358.529 46.0545 357.865 46.1206 357.202 46.1885C355.451 46.1881 353.7 46.1881 351.95 46.1881ZM362.508 34.1979C362.537 33.522 362.465 32.7808 362.351 32.0435C361.949 29.4444 360.588 27.6539 357.971 26.9981C355.793 26.4523 353.593 26.451 351.404 26.955C348.898 27.5319 347.405 29.1184 346.898 31.6232C346.535 33.4196 346.544 35.2238 346.926 37.0198C347.432 39.4 348.852 40.9319 351.222 41.5143C353.481 42.0695 355.76 42.0707 358.014 41.4968C360.278 40.9208 361.674 39.458 362.205 37.1755C362.428 36.2188 362.526 35.2506 362.508 34.1979Z" fill="#5F5F5F"/>
<path d="M492.297 45.4157C492.143 45.4238 491.989 45.4396 491.835 45.4396C485.747 45.4409 479.659 45.4409 473.57 45.4405C472.964 45.4405 472.963 45.4396 472.963 44.823C472.963 44.1151 472.971 43.4072 472.96 42.6993C472.956 42.4236 473.057 42.3208 473.336 42.2931C474.167 42.2111 474.994 42.0976 475.823 41.9965C476.042 41.9696 476.251 41.9073 476.448 41.8088C477.011 41.5263 477.186 41.0688 476.918 40.497C476.627 39.877 476.191 39.3449 475.819 38.774C475.689 38.5743 475.474 38.634 475.288 38.6336C472.147 38.6306 469.006 38.6315 465.866 38.6315C464.694 38.6315 463.523 38.6383 462.352 38.6268C462.077 38.6242 461.896 38.7032 461.755 38.9481C461.453 39.4717 461.119 39.9769 460.811 40.4975C460.444 41.1158 460.622 41.6453 461.28 41.9496C461.824 42.2005 462.418 42.1194 462.985 42.218C463.25 42.2641 463.522 42.2705 463.791 42.2961C464.358 42.3503 464.358 42.3507 464.359 42.9327C464.359 43.589 464.359 44.2457 464.358 44.902C464.357 45.4379 464.356 45.4401 463.827 45.4401C460.377 45.4409 456.927 45.4405 453.478 45.4405C452.448 45.4405 451.418 45.4298 450.389 45.4465C450.053 45.452 449.933 45.3423 449.942 45.0031C449.961 44.244 449.956 43.4844 449.944 42.7249C449.939 42.4377 450.033 42.3195 450.335 42.2909C451.192 42.2099 452.045 42.0942 452.899 41.9884C453.636 41.8971 454.135 41.4691 454.512 40.8572C455.849 38.6882 457.191 36.5218 458.531 34.355C459.729 32.4177 460.929 30.4813 462.125 28.5432C462.287 28.2816 462.458 28.0252 462.468 27.6962C462.489 27.0629 462.077 26.5837 461.445 26.5176C460.231 26.3909 459.018 26.2509 457.804 26.1378C457.518 26.1114 457.43 25.9992 457.434 25.7286C457.444 24.9695 457.451 24.2095 457.431 23.4504C457.421 23.0979 457.539 22.9832 457.894 22.9849C460.313 22.9972 462.733 22.9913 465.153 22.9913C468.191 22.9913 471.229 23.0135 474.266 22.9793C475.359 22.967 476.131 23.3958 476.715 24.291C479.295 28.2471 481.887 32.1958 484.474 36.1472C485.489 37.6978 486.507 39.2459 487.514 40.8017C488.047 41.6236 488.797 42.0174 489.767 42.0776C490.612 42.1301 491.454 42.2406 492.297 42.3255C492.297 43.356 492.297 44.3861 492.297 45.4157ZM468.709 34.5764C470.009 34.5764 471.308 34.5773 472.607 34.5743C472.704 34.5739 472.835 34.6238 472.89 34.5154C472.944 34.4109 472.836 34.3277 472.782 34.2457C471.442 32.2022 470.097 30.1617 468.761 28.1156C468.607 27.8792 468.528 27.8293 468.356 28.1114C467.113 30.1553 465.855 32.1903 464.604 34.2287C464.406 34.5496 464.421 34.5752 464.811 34.5756C466.111 34.5777 467.41 34.5764 468.709 34.5764Z" fill="#5F5F5F"/>
<path d="M403.444 39.4925C403.444 36.4488 403.451 33.5143 403.44 30.5803C403.436 29.694 403.516 28.8043 403.383 27.921C403.236 26.9511 402.775 26.5364 401.806 26.4374C400.95 26.3499 400.098 26.2253 399.241 26.1387C398.973 26.1113 398.882 25.9991 398.898 25.7457C398.951 24.8991 398.998 24.052 399.042 23.2046C399.052 23.0168 399.128 22.9161 399.322 22.9191C399.425 22.9204 399.528 22.9161 399.631 22.9161C404.046 22.9161 408.462 22.9157 412.877 22.9161C413.453 22.9161 413.454 22.9174 413.455 23.4888C413.455 24.2095 413.447 24.9306 413.458 25.6514C413.462 25.9193 413.376 26.038 413.091 26.067C412.311 26.1459 411.537 26.2769 410.758 26.352C409.431 26.4796 408.94 26.9887 408.904 28.3273C408.9 28.4689 408.902 28.6106 408.902 28.7518C408.902 34.1194 408.902 39.487 408.902 44.8546C408.902 45.4392 408.902 45.4405 408.306 45.4405C404.805 45.4405 401.304 45.4277 397.803 45.4473C396.779 45.4533 396.029 45.0782 395.404 44.2504C391.661 39.2873 387.889 34.3469 384.126 29.3991C384.043 29.2903 383.953 29.1871 383.857 29.0697C383.767 29.2122 383.806 29.3432 383.806 29.4657C383.803 32.838 383.802 36.2107 383.807 39.583C383.808 39.9551 383.835 40.3293 383.881 40.6989C383.983 41.5139 384.54 41.9777 385.449 42.0707C386.305 42.1582 387.157 42.2832 388.013 42.3694C388.285 42.3967 388.358 42.5192 388.355 42.7663C388.348 43.5386 388.339 44.3114 388.359 45.0829C388.368 45.4272 388.24 45.5237 387.909 45.522C385.708 45.5113 383.507 45.5164 381.306 45.5164C378.989 45.5164 376.672 45.51 374.355 45.5228C373.995 45.5249 373.848 45.4255 373.861 45.0453C373.884 44.2994 373.875 43.5523 373.864 42.806C373.86 42.5252 373.942 42.3937 374.249 42.3647C375.08 42.2862 375.906 42.1556 376.736 42.0741C377.875 41.9623 378.407 41.3756 378.415 40.1365C378.426 38.4117 378.418 36.6869 378.418 34.9617C378.418 32.8508 378.418 30.7399 378.418 28.6285C378.418 28.4996 378.422 28.3708 378.414 28.2423C378.345 27.045 377.83 26.5355 376.647 26.4284C375.816 26.3533 374.99 26.2253 374.16 26.1306C373.95 26.1067 373.868 26.0051 373.869 25.805C373.871 24.9682 373.871 24.1318 373.87 23.2951C373.869 23.0873 373.964 22.9861 374.175 22.9925C374.277 22.9959 374.381 22.9912 374.484 22.9912C379.375 22.9912 384.266 22.9912 389.158 22.9912C389.364 22.9912 389.57 22.9887 389.776 22.9964C390.564 23.0245 391.191 23.3138 391.687 23.9727C395.488 29.0207 399.309 34.0541 403.124 39.0919C403.207 39.2028 403.296 39.3086 403.444 39.4925Z" fill="#5F5F5F"/>
<path d="M427.603 45.4405C422.925 45.4405 419.063 45.4409 415.201 45.44C414.649 45.44 414.648 45.4383 414.647 44.8857C414.646 44.165 414.656 43.4439 414.643 42.7232C414.638 42.4347 414.734 42.3221 415.035 42.2905C415.993 42.1902 416.95 42.0763 417.901 41.9244C418.597 41.8134 419.001 41.3803 419.111 40.6954C419.166 40.3541 419.196 40.0046 419.197 39.6585C419.203 35.9509 419.199 32.2436 419.203 28.5359C419.204 28.2116 419.17 27.892 419.115 27.5767C419.02 27.0335 418.694 26.6789 418.163 26.5193C417.455 26.3064 416.716 26.3119 415.992 26.2112C414.716 26.0341 414.984 26.2987 414.956 25.0962C414.942 24.5172 414.961 23.9377 414.95 23.3582C414.946 23.0988 415.034 22.9673 415.306 22.9917C415.37 22.9976 415.435 22.9917 415.499 22.9917C422.914 22.9921 430.329 22.9767 437.744 23.0023C440.399 23.0117 443 23.4192 445.461 24.4749C448.046 25.5831 450.055 27.304 451.1 29.9867C451.776 31.7196 451.954 33.5199 451.786 35.3692C451.639 36.9852 451.205 38.5013 450.354 39.8868C449.305 41.5958 447.812 42.8111 446.028 43.6773C443.868 44.7253 441.563 45.2361 439.18 45.3568C435.051 45.5655 430.918 45.3722 427.603 45.4405ZM427.977 34.2526C427.977 36.3498 427.977 38.4471 427.977 40.5448C427.977 41.0876 427.978 41.0897 428.5 41.0897C430.791 41.0906 433.081 41.094 435.371 41.0867C435.91 41.085 436.448 41.0782 436.987 41.0044C439.235 40.698 440.557 39.5531 441.072 37.3449C441.521 35.4175 441.491 33.4674 441.164 31.5237C440.981 30.4369 440.58 29.4431 439.749 28.6729C438.81 27.802 437.644 27.476 436.416 27.4525C433.767 27.4026 431.115 27.4324 428.465 27.4098C428.066 27.4064 427.966 27.5395 427.969 27.9215C427.986 30.032 427.977 32.1425 427.977 34.2526Z" fill="#5F5F5F"/>
<path d="M235.738 13.5866C236.314 13.5874 236.21 13.5132 236.323 14.0342C237.563 19.7461 238.841 25.4491 240.296 31.1107C240.682 32.6115 241.109 34.0998 241.744 35.5199C242.708 37.6765 244.342 38.9532 246.682 39.3176C247.349 39.4217 248.02 39.4683 248.695 39.4977C249.662 39.5399 250.629 39.5233 251.594 39.4759C252.717 39.4205 253.828 39.2643 254.87 38.7932C256.094 38.2393 257.008 37.356 257.653 36.1873C258.306 35.0027 258.727 33.726 259.083 32.4301C260.098 28.7314 261.021 25.0092 261.857 21.2657C262.409 18.7989 262.947 16.3291 263.483 13.8588C263.53 13.645 263.614 13.5708 263.837 13.5802C265.065 13.6301 266.292 13.6796 267.512 13.8375C267.652 13.8554 267.695 13.9186 267.687 14.0466C267.638 14.7835 267.592 15.5204 267.544 16.2574C267.509 16.7814 267.469 17.3054 267.435 17.8294C267.364 18.906 267.294 19.983 267.227 21.06C267.18 21.8042 267.139 22.5484 267.09 23.2925C267.025 24.3055 266.955 25.3186 266.888 26.3316C266.841 27.0399 266.798 27.7487 266.751 28.457C266.683 29.4768 266.613 30.4967 266.545 31.5169C266.499 32.2039 266.456 32.8914 266.41 33.5784C266.342 34.5982 266.272 35.618 266.203 36.6379C266.157 37.3249 266.115 38.0123 266.066 38.6993C266.001 39.6057 265.929 40.5111 265.863 41.4175C265.815 42.0759 265.774 42.7347 265.725 43.3931C265.661 44.2636 265.591 45.1341 265.524 46.0046C265.477 46.6203 265.434 47.2365 265.385 47.8522C265.319 48.7014 265.25 49.5501 265.182 50.3993C265.122 51.1494 265.062 51.8992 265.002 52.6493C264.975 52.9817 264.939 53.3137 264.921 53.6465C264.913 53.7925 264.851 53.8394 264.712 53.8522C264.034 53.9154 263.358 54.0063 262.679 54.0506C261.545 54.1249 260.409 54.174 259.275 54.2273C258.948 54.2427 258.949 54.2324 258.868 53.9154C258.292 51.6726 257.756 49.4187 256.997 47.2276C256.78 46.6024 256.527 45.9931 256.245 45.394C255.649 44.1275 254.654 43.4192 253.286 43.1815C251.864 42.9348 250.433 42.8679 248.996 42.9348C248.04 42.9792 247.082 43.0492 246.145 43.2673C245.024 43.528 244.203 44.1783 243.673 45.196C243.085 46.3242 242.707 47.5322 242.343 48.7441C241.826 50.4659 241.401 52.2124 240.948 53.9516C240.89 54.1787 240.794 54.2439 240.57 54.2337C239.484 54.1842 238.399 54.1334 237.314 54.0707C236.562 54.0272 235.814 53.9563 235.068 53.8573C234.905 53.8356 234.859 53.7682 234.847 53.6137C234.772 52.6374 234.683 51.6619 234.605 50.6856C234.54 49.8646 234.486 49.0432 234.422 48.2222C234.343 47.2105 234.257 46.1992 234.179 45.187C234.128 44.5145 234.087 43.8412 234.038 43.1687C233.973 42.2837 233.903 41.3995 233.838 40.5145C233.789 39.8348 233.746 39.1546 233.698 38.4749C233.632 37.5472 233.562 36.62 233.498 35.6927C233.448 34.9631 233.405 34.233 233.356 33.5033C233.291 32.5261 233.221 31.5489 233.156 30.5714C233.106 29.8203 233.064 29.0689 233.015 28.3179C232.95 27.3335 232.881 26.3491 232.815 25.3646C232.781 24.8475 232.751 24.3299 232.718 23.8127C232.651 22.7856 232.581 21.7585 232.515 20.7314C232.466 19.9591 232.424 19.1863 232.375 18.414C232.31 17.4009 232.241 16.3879 232.174 15.3749C232.145 14.9286 232.119 14.4818 232.087 14.0359C232.077 13.8955 232.14 13.8507 232.271 13.8383C232.787 13.7893 233.301 13.718 233.817 13.6817C234.461 13.6352 235.108 13.616 235.738 13.5866Z" fill="#5F5F5F"/>
</g>
<rect width="78.7967" height="66.5394" transform="translate(588.297 0.50061)" fill="white"/>
<path d="M599.481 23.5483C603.581 11.6631 614.915 3.63253 627.695 3.63253C640.476 3.63253 651.809 11.6631 655.909 23.5483V23.6286H664.912V22.5846L661.214 22.1831C658.883 21.9422 658.401 20.8982 657.758 19.6133L657.597 19.2921C652.211 7.88872 640.476 0.50061 627.695 0.50061C614.915 0.50061 603.179 7.88872 597.713 19.2921L597.552 19.6133C596.99 20.8982 596.427 21.9422 594.176 22.1831L590.398 22.5846V23.6286H599.401L599.481 23.5483Z" fill="#5F5F5F"/>
<path d="M655.989 42.3839V42.4642C651.809 54.3494 640.476 62.3799 627.695 62.3799C614.915 62.3799 603.581 54.3494 599.481 42.4642V42.3839H590.398V43.4278L594.176 43.8293C596.507 44.0703 596.99 45.1142 597.633 46.3991L597.793 46.7203C603.099 58.1237 614.915 65.5119 627.695 65.5119C640.476 65.5119 652.211 58.1237 657.677 46.7203L657.838 46.3991C658.481 45.1142 658.963 44.1506 661.294 43.8293L665.072 43.4278V42.3839H655.989Z" fill="#5F5F5F"/>
<path d="M606.555 9.33026H604.465V18.4851H606.555V9.33026Z" fill="#5F5F5F"/>
<path d="M599.562 38.4048V29.3303H597.552V36.1562L590.881 29.3303H588.309V38.4048H590.318V31.5788L597.07 38.4048H599.562Z" fill="#5F5F5F"/>
<path d="M645.299 29.3303L639.672 38.4851H642.083L643.048 36.879H649.559L650.523 38.4851H652.935L647.308 29.3303H645.299ZM648.594 35.1123H644.093L646.343 31.4182L648.594 35.1123Z" fill="#5F5F5F"/>
<path d="M633.965 36.5579C633.885 36.5579 633.643 36.5579 633.563 36.5579H625.123V38.4049H633.643C633.724 38.4049 634.206 38.4049 634.286 38.4049C636.055 38.2443 636.778 36.8791 636.778 35.5942C636.778 34.3093 635.974 33.0244 634.367 32.8638C634.126 32.8638 633.885 32.8638 633.724 32.8638H628.177C627.936 32.8638 627.776 32.8638 627.534 32.7835C627.133 32.7032 626.891 32.382 626.972 31.9805C626.972 31.5789 627.213 31.2577 627.615 31.1774C627.776 31.0971 628.017 31.0971 628.177 31.0971H636.216V29.2501H628.097C627.856 29.2501 627.534 29.2501 627.293 29.3304C625.927 29.491 624.882 30.6153 624.882 31.9805C624.882 33.1047 625.605 34.4699 627.213 34.6305C627.534 34.6305 627.776 34.7108 628.097 34.6305H633.483C633.563 34.6305 633.804 34.6305 633.885 34.6305C634.367 34.7108 634.688 35.1124 634.688 35.5139C634.688 36.076 634.367 36.4776 633.965 36.5579Z" fill="#5F5F5F"/>
<path d="M619.175 35.5578C619.094 35.5578 618.853 35.5578 618.773 35.5578H610.413V37.4048H618.853C618.934 37.4048 619.416 37.4048 619.496 37.4048C621.265 37.2442 622.069 35.879 622.069 34.6744C622.069 33.4698 621.265 32.1046 619.657 31.944C619.416 31.944 619.175 31.944 619.014 31.944H613.468C613.227 31.944 613.066 31.944 612.825 31.8637C612.423 31.7834 612.182 31.4622 612.262 31.0607C612.262 30.6591 612.503 30.3379 612.905 30.2576C613.066 30.1773 613.307 30.1773 613.468 30.1773H621.506V28.3303H613.307C613.066 28.3303 612.744 28.3303 612.503 28.4106C611.137 28.5712 610.092 29.6955 610.092 31.0607C610.092 32.1849 610.815 33.5501 612.423 33.7107C612.744 33.7107 612.986 33.791 613.307 33.7107H618.693C618.773 33.7107 619.014 33.7107 619.094 33.7107C619.577 33.791 619.898 34.1926 619.898 34.5941C619.979 35.0759 619.577 35.4775 619.175 35.5578Z" fill="#5F5F5F"/>
<path d="M667.082 38.4048V29.3303H665.072V36.1562L658.401 29.3303H655.829V38.4048H657.838V31.5788L664.59 38.4048H667.082Z" fill="#5F5F5F"/>
<path d="M661.857 60.9708C662.822 60.9708 663.626 61.7738 663.626 62.7375C663.626 63.7012 662.822 64.5042 661.857 64.5042C660.893 64.5042 660.089 63.7012 660.089 62.7375C660.089 62.2557 660.25 61.8541 660.652 61.4526C660.893 61.1314 661.375 60.8905 661.857 60.9708ZM661.857 64.1027C662.259 64.1027 662.581 63.9421 662.822 63.7012C663.063 63.4602 663.224 63.0587 663.224 62.7375C663.224 62.0147 662.581 61.3723 661.857 61.4526C661.134 61.4526 660.491 62.095 660.491 62.8178C660.491 63.4602 661.053 64.1027 661.857 64.1027ZM661.134 63.6208V61.8541C661.375 61.8541 661.536 61.7738 661.777 61.7738C662.098 61.7738 662.581 61.8541 662.581 62.2557C662.581 62.4966 662.42 62.6572 662.179 62.6572C662.34 62.7375 662.42 62.8981 662.5 63.0587C662.5 63.2193 662.581 63.3799 662.661 63.4602H662.259C662.179 63.2996 662.179 63.139 662.098 63.0587C662.018 62.8178 661.857 62.8178 661.536 62.8178V63.5405L661.134 63.6208ZM661.536 62.5769C661.857 62.5769 662.179 62.5769 662.179 62.336C662.179 62.1753 662.098 62.095 661.777 62.095C661.696 62.095 661.616 62.095 661.536 62.095V62.5769Z" fill="#5F5F5F"/>
<rect width="224.133" height="66.5394" transform="translate(763.094 0.50061)" fill="white"/>
<g clip-path="url(#clip1_12_590)">
<path d="M766.894 27.628L774.613 41.4354L783.536 41.4586L791.113 27.628H794.914V25.1133H783.489V27.628H786.794L781.27 37.6866L775.675 27.628H779.688V25.1133H763.094V27.628H766.894Z" fill="#5F5F5F"/>
<path d="M865.163 27.628V25.1367H880.459V27.628H876.659V38.9207H880.2C883.481 38.9207 885.629 36.7786 885.629 33.8914H888.155V41.4587H865.187V38.8974H869.034V27.6048H865.163V27.628Z" fill="#5F5F5F"/>
<path d="M828.079 24.7641C820.407 24.7641 816.324 28.5361 816.324 33.286C816.324 38.0825 820.242 41.9243 828.126 41.9243C836.011 41.9243 839.882 38.0825 839.882 33.286C839.882 28.5594 835.775 24.7641 828.079 24.7641ZM828.008 39.3398C825.199 39.2932 823.972 36.2431 824.019 33.1929C824.066 30.0495 825.601 27.302 828.221 27.3486C830.841 27.3952 832.234 30.1892 832.187 33.3326C832.139 36.2896 830.888 39.3864 828.008 39.3398Z" fill="#5F5F5F"/>
<path d="M914.215 27.628L921.934 41.4354L930.857 41.4586L938.434 27.628H942.235V25.1133H930.81V27.628H934.114L928.591 37.6866L922.996 27.628H927.009V25.1133H910.415V27.628H914.215Z" fill="#5F5F5F"/>
<path d="M975.4 24.7641C967.729 24.7641 963.645 28.5361 963.645 33.286C963.645 38.0825 967.564 41.9243 975.448 41.9243C983.332 41.9243 987.203 38.0825 987.203 33.286C987.203 28.5594 983.096 24.7641 975.4 24.7641ZM975.33 39.3398C972.521 39.2932 971.293 36.2431 971.34 33.1929C971.388 30.0495 972.922 27.302 975.542 27.3486C978.162 27.3952 979.555 30.1892 979.508 33.3326C979.461 36.2896 978.21 39.3864 975.33 39.3398Z" fill="#5F5F5F"/>
</g>
<rect width="143.585" height="66.5394" transform="translate(1083.23 0.50061)" fill="white"/>
<path d="M1201.69 58.6219C1196 58.6219 1190.56 56.7517 1186.16 53.2631C1181.77 56.7158 1176.33 58.6219 1170.63 58.6219C1164.94 58.6219 1159.5 56.7517 1155.1 53.2631C1150.71 56.7158 1145.27 58.6219 1139.57 58.6219C1133.88 58.6219 1128.44 56.7517 1124.04 53.2631C1119.65 56.7158 1114.21 58.6219 1108.51 58.6219C1101.88 58.6219 1095.65 56.1044 1090.93 51.5009C1086.14 46.8974 1083.47 40.7474 1083.36 34.2019C1083.25 27.6203 1085.7 21.3984 1090.28 16.6151C1094.82 11.8678 1100.98 9.13449 1107.61 8.9187H1107.72H1109.31C1114.71 9.09852 1119.83 10.9687 1124.01 14.2415C1128.15 10.9687 1133.27 9.09852 1138.67 8.9187L1138.78 11.7239V8.9187H1140.37C1145.77 9.09852 1150.89 10.9687 1155.07 14.2415C1159.25 10.9687 1164.33 9.09852 1169.77 8.9187H1169.88H1171.46C1176.87 9.09852 1181.98 10.9687 1186.16 14.2415C1190.31 10.9687 1195.42 9.09852 1200.86 8.9187L1200.97 11.7239V8.9187H1202.56C1209.15 9.13449 1215.31 11.8678 1219.89 16.6151C1224.47 21.3625 1226.92 27.6203 1226.81 34.1659C1226.7 40.7474 1224.03 46.8974 1219.31 51.5009C1214.52 56.1044 1208.29 58.6219 1201.69 58.6219ZM1190.27 49.1991C1193.48 51.5368 1197.44 52.9395 1201.69 52.9395C1212.18 52.9395 1220.86 44.4878 1221.01 34.1299C1221.19 23.7721 1212.83 15.0687 1202.38 14.673H1201.01C1197.01 14.8169 1193.33 16.1836 1190.31 18.3774C1193.91 22.873 1195.78 28.4116 1195.71 34.2019C1195.57 39.7045 1193.69 44.9193 1190.27 49.1991ZM1159.21 49.1991C1162.42 51.5368 1166.38 52.9395 1170.63 52.9395C1174.89 52.9395 1178.81 51.5368 1182.02 49.1991C1178.63 44.9553 1176.72 39.7045 1176.61 34.2019C1176.51 28.4116 1178.42 22.873 1182.02 18.3774C1178.99 16.1836 1175.32 14.8169 1171.32 14.673H1169.95C1165.95 14.8169 1162.27 16.1836 1159.25 18.3774C1162.85 22.873 1164.72 28.4116 1164.65 34.2019C1164.51 39.7045 1162.6 44.9193 1159.21 49.1991ZM1128.11 49.1991C1131.32 51.5368 1135.29 52.9395 1139.54 52.9395C1143.79 52.9395 1147.72 51.5368 1150.92 49.1991C1147.54 44.9553 1145.63 39.7045 1145.52 34.2019C1145.41 28.4116 1147.32 22.873 1150.92 18.3774C1147.9 16.1836 1144.22 14.8169 1140.22 14.673H1138.85C1134.85 14.8169 1131.18 16.1836 1128.15 18.3774C1131.75 22.873 1133.63 28.4116 1133.56 34.2019C1133.41 39.7045 1131.5 44.9193 1128.11 49.1991ZM1107.76 14.6371C1097.31 14.9967 1088.95 23.7361 1089.13 34.094C1089.31 44.4518 1097.96 52.9035 1108.44 52.9035C1112.69 52.9035 1116.62 51.5009 1119.83 49.1632C1116.44 44.9193 1114.53 39.6685 1114.42 34.1659C1114.31 28.3756 1116.22 22.837 1119.83 18.3414C1116.8 16.1476 1113.12 14.7809 1109.13 14.6371H1107.76ZM1155.07 22.4414C1152.62 25.7142 1151.21 29.7422 1151.28 34.094C1151.36 38.1939 1152.76 42.0062 1155.07 45.0992C1157.37 42.0062 1158.78 38.1939 1158.85 34.094C1158.92 29.7422 1157.48 25.7142 1155.07 22.4414ZM1123.97 22.4414C1121.52 25.7142 1120.12 29.7422 1120.19 34.094C1120.26 38.1939 1121.66 42.0062 1123.97 45.0992C1126.28 42.0062 1127.68 38.1939 1127.75 34.094C1127.83 29.7422 1126.42 25.7142 1123.97 22.4414ZM1186.13 22.4414C1183.68 25.7142 1182.27 29.7422 1182.34 34.094C1182.42 38.1939 1183.82 42.0062 1186.13 45.0992C1188.43 42.0062 1189.84 38.1939 1189.91 34.094C1190.02 29.7422 1188.58 25.7142 1186.13 22.4414Z" fill="#5F5F5F"/>
<rect width="217.129" height="66.5394" transform="translate(1322.81 0.50061)" fill="white"/>
<path d="M1401.47 21.6752H1407.39L1420.65 43.5605H1414.37L1404.47 26.8628L1399.2 35.698H1407.72L1410.27 39.8318H1396.93L1394.54 43.5199H1388.25L1401.47 21.6752ZM1505.78 43.601H1512.07L1514.46 39.9129H1527.81L1525.25 35.7791H1516.73L1522.01 26.9439L1531.9 43.6416H1538.19L1524.93 21.7562H1519.01L1505.78 43.601ZM1420.29 32.6583V35.5764C1420.41 41.3315 1423.66 43.7631 1428.68 43.6416H1445.23V39.1429H1428.73C1425.97 39.2239 1425.76 37.3192 1425.68 35.4143V32.6584V29.7809C1425.76 28.0787 1425.97 26.1334 1428.73 26.1739H1445.23V21.6753H1428.68C1423.66 21.5537 1420.45 24.026 1420.29 29.7405V32.6583ZM1483.11 26.3765H1496.42C1498.28 26.3765 1499.21 27.1871 1499.21 28.7677C1499.21 30.3888 1498.28 31.1589 1496.42 31.1589H1484.49L1485.55 35.8602H1495.73C1497.71 35.8196 1498.85 37.1976 1499.01 39.1025L1499.17 43.6011H1504.45C1504.45 43.6011 1504.41 39.3862 1504.28 38.5351C1504.16 37.684 1503.8 35.3333 1501.73 34.1985C1506.6 30.9968 1504.81 21.7159 1497.83 21.7159H1477.76V43.601H1483.11L1483.11 26.3765ZM1461.33 43.601H1466C1471.76 43.4795 1474.19 40.2372 1474.07 35.2117V21.6752H1468.8V36.3059C1468.88 39.0618 1466.93 39.2644 1465.06 39.3455H1461.33H1457.4C1455.7 39.2645 1453.75 39.0618 1453.79 36.3059V21.6752H1448.4V35.2522C1448.27 40.2777 1450.75 43.4795 1456.47 43.601H1461.33ZM1373.91 31.4242C1373.46 23.2374 1370.66 17.2392 1366.85 13.9564C1362.71 10.4305 1355.01 9.05248 1349.04 9.09303C1343.08 9.05248 1335.38 10.4305 1331.24 13.9564C1327.43 17.2393 1324.63 23.2375 1324.18 31.4242C1323.78 39.1244 1325.44 47.5138 1329.82 52.2557C1334.04 56.9164 1342.47 58.3754 1349 58.3754C1355.53 58.4159 1363.97 56.9164 1368.19 52.2557C1372.57 47.4733 1374.27 39.0839 1373.91 31.4242ZM1347.62 11.1599C1348.43 11.1194 1348.64 11.1194 1349 11.1194C1349.37 11.1194 1349.53 11.1194 1350.38 11.1599L1350.42 29.0734C1350.18 29.0734 1347.83 29.0734 1347.58 29.0734C1347.58 29.0734 1347.58 11.1599 1347.62 11.1599ZM1327.47 38.9621C1327.22 35.8821 1326.29 24.6557 1330.75 18.2522C1332.66 15.4558 1335.46 13.5915 1338.3 12.6188C1342.23 11.2409 1346.93 11.1598 1346.93 11.1598C1345.11 15.6585 1341.34 25.3042 1340.61 27.4521C1339.72 30.0864 1338.94 31.586 1338.17 36.3278C1337.69 40.2186 1336.84 49.9048 1336.59 54.1198C1331.32 51.6071 1328.16 46.8248 1327.47 38.9621ZM1348.96 56.3084C1345.27 56.268 1340.73 55.9032 1337.12 54.3631C1338.34 51.1208 1344.14 37.1791 1347.34 31.7483C1347.58 31.7483 1350.38 31.7483 1350.63 31.7483C1353.79 37.1791 1359.63 51.1208 1360.85 54.3631C1357.2 55.9436 1352.69 56.268 1348.96 56.3084ZM1370.5 38.922C1369.81 46.825 1366.65 51.5668 1361.37 54.1201C1361.13 49.9051 1360.28 40.2189 1359.79 36.3281C1359.02 31.5457 1358.25 30.0867 1357.36 27.4524C1356.63 25.3043 1352.86 15.6586 1351.03 11.16C1351.03 11.16 1355.74 11.241 1359.67 12.619C1362.51 13.5917 1365.31 15.4964 1367.21 18.2524C1371.67 24.6559 1370.74 35.8821 1370.5 38.922Z" fill="#5F5F5F"/>
<defs>
<clipPath id="clip0_12_590">
<rect width="272.104" height="66.54" fill="white" transform="translate(220.193 0.5)"/>
</clipPath>
<clipPath id="clip1_12_590">
<rect width="224.133" height="17.1835" fill="white" transform="translate(763.094 24.7408)"/>
</clipPath>
</defs>
</svg>
